# xmcd CD database file
#
# Track frame offsets:
#	150
#	17695
#	31300
#
# Disc length: 522 seconds
#
# Revision: 5
# Processed by: cddbd v1.5.1PL0 Copyright (c) Steve Scherf et al.
# Submitted via: CDex 1.51
#
DISCID=18020803
DTITLE=氣志團 - 夢みる頃を過ぎても
DYEAR=2005
DGENRE=J-Pop
TTITLE0=夢みる頃を過ぎても
TTITLE1=押忍ぺラーズ - アンドロメダの先輩 〜押忍ぺラーズのテーマ〜
TTITLE2=白鳥雪之丞 with THE POWER MOUNTAINS - いやさか！マッスル音頭
EXTD=YEAR: 2005
EXTT0=
EXTT1=
EXTT2=
PLAYORDER=
